<?xml version="1.0"?>
<svg xmlns="http://www.w3.org/2000/svg" xmlns:xlink="http://www.w3.org/1999/xlink" xmlns:svgjs="http://svgjs.com/svgjs" version="1.1" width="512" height="512" x="0" y="0" viewBox="0 0 512.01067 512" style="enable-background:new 0 0 512 512" xml:space="preserve" class=""><g><path xmlns="http://www.w3.org/2000/svg" d="m208.027344 426.710938c-1.707032 0-3.457032-.195313-5.183594-.640626-11.4375-2.859374-18.390625-14.445312-15.53125-25.878906l96-384c2.859375-11.433594 14.421875-18.429687 25.855469-15.53125 11.433593 2.859375 18.390625 14.445313 15.53125 25.878906l-96 384c-2.433594 9.707032-11.113281 16.171876-20.671875 16.171876zm0 0" fill="#ff2f20" data-original="#f44336" style="" class=""/><g xmlns="http://www.w3.org/2000/svg" fill="#607d8b"><path d="m149.339844 362.710938c-5.460938 0-10.925782-2.09375-15.082032-6.253907l-128-128c-8.34375-8.339843-8.34375-21.820312 0-30.164062l128-128c8.339844-8.339844 21.820313-8.339844 30.164063 0 8.339844 8.34375 8.339844 21.824219 0 30.164062l-112.917969 112.917969 112.917969 112.917969c8.339844 8.34375 8.339844 21.824219 0 30.164062-4.160156 4.160157-9.621094 6.253907-15.082031 6.253907zm0 0" fill="#000000" data-original="#607d8b" style="" class=""/><path d="m362.671875 362.710938c-5.460937 0-10.921875-2.09375-15.082031-6.253907-8.34375-8.339843-8.34375-21.820312 0-30.164062l112.917968-112.917969-112.917968-112.917969c-8.34375-8.339843-8.34375-21.820312 0-30.164062 8.339844-8.339844 21.824218-8.339844 30.164062 0l128 128c8.34375 8.34375 8.34375 21.824219 0 30.164062l-128 128c-4.160156 4.160157-9.621094 6.253907-15.082031 6.253907zm0 0" fill="#000000" data-original="#607d8b" style="" class=""/></g></g></svg>
