<?xml version="1.0"?>
<svg xmlns="http://www.w3.org/2000/svg" xmlns:xlink="http://www.w3.org/1999/xlink" xmlns:svgjs="http://svgjs.com/svgjs" version="1.1" width="512" height="512" x="0" y="0" viewBox="0 0 511.693 511.693" style="enable-background:new 0 0 512 512" xml:space="preserve" class=""><g><g xmlns="http://www.w3.org/2000/svg"><g><g id="XMLID_178_"><g><path d="m352.427 478.814h-191.16l31.33-30.63v-76.66h129.02l-.52 76.66z" fill="#c7c0c7" data-original="#c7c0c7" style="" class=""/></g></g><path d="m321.617 371.524h-106.784-22.236v76.66l-31.33 30.63h31.947l23.109-22.592c3.071-3.002 4.802-7.115 4.802-11.409v-11.205c0-4.072 3.301-7.374 7.374-7.374h92.748z" fill="#b8afb8" data-original="#b8afb8" style="" class=""/><path d="m465.707 32.884h-419.72c-21.25 0-38.49 17.23-38.49 38.49v282.8l52.097 23.931h414.808l29.795-23.931v-282.8c0-21.26-17.24-38.49-38.49-38.49z" fill="#f3fbff" data-original="#f3fbff" style="" class=""/><g id="XMLID_177_"><g><path d="m96.091 374.431c-21.25 0-38.49-17.23-38.49-38.49v-296.37c0-2.282.21-4.514.591-6.687h-12.205c-21.25 0-38.49 17.23-38.49 38.49v282.8l52.097 23.931h414.808l4.575-3.674z" fill="#e3f6fc" data-original="#e3f6fc" style="" class=""/><path d="m504.197 354.174v13.57c0 21.26-17.24 38.49-38.49 38.49h-419.72c-21.25 0-38.49-17.23-38.49-38.49v-13.57z" fill="#d6d1d6" data-original="#d6d1d6" style="" class=""/><path d="m96.091 374.431c-14.655 0-27.401-8.197-33.902-20.257h-54.692v13.57c0 21.26 17.24 38.49 38.49 38.49h419.72c18.969 0 34.731-13.733 37.899-31.803z" fill="#c7c0c7" data-original="#c7c0c7" style="" class=""/></g></g><g><path d="m181.785 302.975c-3.839 0-7.678-1.464-10.606-4.394l-76.784-76.784c-5.858-5.858-5.858-15.355 0-21.213l76.784-76.784c5.857-5.858 15.355-5.858 21.213 0s5.858 15.355 0 21.213l-66.178 66.178 66.178 66.178c5.858 5.858 5.858 15.355 0 21.213-2.929 2.929-6.768 4.393-10.607 4.393z" fill="#666666" data-original="#e5827f" style="" class=""/></g><g><path d="m330.691 302.975c-3.839 0-7.678-1.464-10.606-4.394-5.858-5.858-5.858-15.355 0-21.213l66.178-66.178-66.178-66.178c-5.858-5.858-5.858-15.355 0-21.213 5.857-5.858 15.355-5.858 21.213 0l76.784 76.784c5.858 5.858 5.858 15.355 0 21.213l-76.784 76.784c-2.929 2.931-6.768 4.395-10.607 4.395z" fill="#666666" data-original="#e5827f" style="" class=""/></g><g><path d="m238.949 299.12c-1.054 0-2.124-.111-3.195-.344-8.096-1.756-13.235-9.744-11.479-17.839l33.825-155.884c1.757-8.096 9.744-13.236 17.84-11.478 8.096 1.756 13.235 9.744 11.479 17.839l-33.824 155.883c-1.526 7.025-7.74 11.823-14.646 11.823z" fill="#ff2b26" data-original="#ea9a98" style="" class=""/></g></g><g><path d="m465.703 25.383h-419.713c-25.359 0-45.99 20.632-45.99 45.991v296.371c0 25.359 20.631 45.99 45.99 45.99h139.11v31.296l-26.889 26.28h-11.476c-4.143 0-7.5 3.358-7.5 7.5s3.357 7.5 7.5 7.5h218.881c4.143 0 7.5-3.358 7.5-7.5s-3.357-7.5-7.5-7.5h-10.132l-26.889-26.28v-31.296h137.109c25.359 0 45.99-20.631 45.99-45.99v-296.371c-.001-25.359-20.632-45.991-45.991-45.991zm-419.713 15h419.713c17.088 0 30.99 13.902 30.99 30.99v275.296h-481.693v-275.295c0-17.088 13.902-30.991 30.99-30.991zm419.713 358.351h-220.235c-4.143 0-7.5 3.358-7.5 7.5s3.357 7.5 7.5 7.5h68.126v34.453c0 2.019.814 3.953 2.258 5.364l18.171 17.759h-154.352l18.171-17.759c1.443-1.411 2.258-3.345 2.258-5.364v-34.453h13.406c4.143 0 7.5-3.358 7.5-7.5s-3.357-7.5-7.5-7.5h-167.516c-17.088 0-30.99-13.902-30.99-30.99v-6.075h481.693v6.075c0 17.088-13.902 30.99-30.99 30.99z" fill="#000000" data-original="#000000" style="" class=""/><path d="m256.347 368.935c-4.143 0-7.5 3.358-7.5 7.5v3.34c0 4.142 3.357 7.5 7.5 7.5s7.5-3.358 7.5-7.5v-3.34c0-4.142-3.358-7.5-7.5-7.5z" fill="#000000" data-original="#000000" style="" class=""/><path d="m165.875 303.884c4.249 4.25 9.899 6.591 15.91 6.591s11.661-2.341 15.909-6.59c4.25-4.25 6.591-9.9 6.591-15.91s-2.341-11.66-6.59-15.91l-60.875-60.875 60.874-60.874c4.25-4.25 6.591-9.9 6.591-15.91s-2.341-11.66-6.59-15.909c-4.249-4.25-9.899-6.591-15.91-6.591s-11.661 2.34-15.91 6.59l-76.783 76.784c-4.25 4.25-6.591 9.9-6.591 15.91s2.341 11.66 6.59 15.91zm-66.177-97.996 76.784-76.785c1.416-1.417 3.3-2.196 5.303-2.196s3.887.78 5.304 2.197c1.416 1.417 2.196 3.3 2.196 5.303s-.78 3.886-2.197 5.303l-66.178 66.178c-2.929 2.929-2.929 7.678 0 10.606l66.179 66.178c1.416 1.417 2.196 3.3 2.196 5.303s-.78 3.886-2.197 5.304c-1.416 1.417-3.3 2.196-5.303 2.196s-3.887-.78-5.303-2.197l-76.785-76.785c-1.416-1.417-2.196-3.3-2.196-5.303s.78-3.885 2.197-5.302z" fill="#000000" data-original="#000000" style="" class=""/><path d="m308.191 287.975c0 6.01 2.341 11.66 6.59 15.909 4.249 4.25 9.899 6.591 15.91 6.591s11.661-2.341 15.91-6.59l26.771-26.772c2.929-2.929 2.929-7.678 0-10.606-2.93-2.929-7.678-2.929-10.607 0l-26.771 26.772c-1.416 1.417-3.3 2.196-5.303 2.196s-3.887-.78-5.304-2.197c-1.416-1.417-2.196-3.3-2.196-5.303s.78-3.886 2.197-5.303l66.178-66.178c2.929-2.929 2.929-7.678 0-10.606l-66.179-66.178c-1.416-1.417-2.196-3.3-2.196-5.303s.78-3.886 2.197-5.304c1.416-1.417 3.3-2.196 5.303-2.196s3.887.78 5.303 2.197l76.785 76.785c1.416 1.417 2.196 3.3 2.196 5.303s-.78 3.886-2.197 5.303l-26.863 26.864c-2.929 2.929-2.929 7.678 0 10.606 2.93 2.929 7.678 2.929 10.607 0l26.862-26.863c4.25-4.25 6.591-9.9 6.591-15.91s-2.341-11.66-6.59-15.91l-76.784-76.784c-4.249-4.25-9.899-6.591-15.91-6.591s-11.661 2.34-15.909 6.59c-4.25 4.25-6.591 9.9-6.591 15.91s2.341 11.66 6.59 15.91l60.875 60.875-60.874 60.874c-4.25 4.249-6.591 9.899-6.591 15.909z" fill="#000000" data-original="#000000" style="" class=""/><path d="m234.16 306.104c1.573.342 3.185.516 4.789.516 10.503 0 19.744-7.457 21.974-17.732l33.824-155.883c1.274-5.873.186-11.891-3.066-16.946-3.252-5.054-8.277-8.539-14.149-9.813-5.874-1.274-11.892-.187-16.947 3.065-5.054 3.252-8.539 8.278-9.813 14.151l-7.726 35.605c-.879 4.048 1.69 8.042 5.738 8.92 4.055.878 8.042-1.691 8.92-5.739l7.726-35.605c.425-1.958 1.587-3.633 3.272-4.718 1.685-1.083 3.688-1.447 5.648-1.021 1.957.425 3.633 1.586 4.717 3.271s1.447 3.691 1.022 5.648l-33.824 155.883c-.744 3.426-3.82 5.913-7.315 5.913-.535 0-1.074-.058-1.605-.174-1.957-.425-3.633-1.586-4.717-3.271s-1.447-3.691-1.022-5.648l19.163-88.315c.879-4.048-1.69-8.042-5.738-8.92-4.053-.876-8.042 1.692-8.92 5.739l-19.163 88.315c-1.274 5.873-.186 11.891 3.066 16.946 3.251 5.055 8.276 8.54 14.146 9.813z" fill="#000000" data-original="#000000" style="" class=""/></g></g></g></svg>
