<?xml version="1.0"?>
<svg xmlns="http://www.w3.org/2000/svg" xmlns:xlink="http://www.w3.org/1999/xlink" xmlns:svgjs="http://svgjs.com/svgjs" version="1.1" width="512" height="512" x="0" y="0" viewBox="0 0 512 512" style="enable-background:new 0 0 512 512" xml:space="preserve" class=""><g><g xmlns="http://www.w3.org/2000/svg"><g><path d="m310.071 473.951h-108.142l9.527-72.648h89.088z" fill="#dad8db" data-original="#dad8db" style=""/><path d="m302.904 419.303-2.36-18h-89.088l-2.36 18z" fill="#c8c5c9" data-original="#c8c5c9" style=""/><path d="m474 401.303h-436c-16.569 0-30-13.431-30-30v-303.254c0-16.568 13.431-30 30-30h436c16.569 0 30 13.432 30 30v303.254c0 16.569-13.431 30-30 30z" fill="#dbe8fb" data-original="#bed8fb" style="" class=""/><path d="m8 338.042v33.261c0 16.568 13.431 30 30 30h436c16.569 0 30-13.432 30-30v-33.261z" fill="#eceaec" data-original="#eceaec" style="" class=""/><path d="m8 320.042h496v18h-496z" fill="#a8b2bf" data-original="#a3caf7" style="" class=""/><path d="m474 383.303h-436c-16.569 0-30-13.431-30-30v18c0 16.569 13.431 30 30 30h436c16.569 0 30-13.431 30-30v-18c0 16.569-13.431 30-30 30z" fill="#dad8db" data-original="#dad8db" style=""/><path d="m58.958 144.559h394.083v193.483h-394.083z" fill="#eceaec" data-original="#eceaec" style="" class=""/><path d="m58.958 320.042h394.083v18h-394.083z" fill="#dad8db" data-original="#dad8db" style=""/><path d="m438.041 85.146h-364.083c-8.284 0-15 6.716-15 15v44.413h394.083v-44.413c0-8.284-6.715-15-15-15z" fill="#434d59" data-original="#434d59" style="" class=""/><path d="m110.421 182.992h291.142v80.81h-291.142z" fill="#a3caf7" data-original="#df667c" style="" class=""/><path d="m110.421 245.802h291.142v18h-291.142z" fill="#7291b5" data-original="#dc4857" style="" class=""/><path d="m110.421 297.109h127.625v40.933h-127.625z" fill="#edc963" data-original="#edc963" style="" class=""/><path d="m273.954 297.109h127.625v40.933h-127.625z" fill="#edc963" data-original="#edc963" style="" class=""/><g fill="#e7b93e"><path d="m110.421 320.042h127.625v18h-127.625z" fill="#e7b93e" data-original="#e7b93e" style="" class=""/><path d="m273.954 320.042h127.625v18h-127.625z" fill="#e7b93e" data-original="#e7b93e" style="" class=""/></g></g><g><path d="m474.427 30.108h-163.755c-4.151 0-7.515 3.365-7.515 7.515s3.364 7.515 7.515 7.515h163.754c12.43 0 22.544 10.113 22.544 22.544v263.007h-36.028l-.001-230.847c0-12.431-10.114-22.544-22.544-22.544h-364.795c-12.431 0-22.544 10.113-22.544 22.544v230.847h-36.029v-263.008c0-12.431 10.114-22.544 22.544-22.544h243.04c4.151 0 7.515-3.365 7.515-7.515s-3.364-7.515-7.515-7.515h-243.04c-20.718.001-37.573 16.856-37.573 37.574v303.848c0 20.718 16.855 37.573 37.573 37.573h165.231l-7.574 57.761h-26.702c-4.151 0-7.515 3.365-7.515 7.515s3.364 7.515 7.515 7.515h174.943c4.151 0 7.515-3.365 7.515-7.515s-3.364-7.515-7.515-7.515h-26.701l-7.574-57.761h79.629c4.151 0 7.515-3.365 7.515-7.515s-3.364-7.515-7.515-7.515h-351.252c-12.43 0-22.544-10.113-22.544-22.544v-25.811h481.941v25.811c0 12.431-10.114 22.544-22.544 22.544h-55.543c-4.151 0-7.515 3.365-7.515 7.515s3.364 7.515 7.515 7.515h55.543c20.718 0 37.573-16.855 37.573-37.573v-303.848c.001-20.718-16.854-37.573-37.572-37.573zm-172.815 436.755h-91.223l7.574-57.761h76.074zm-235.525-367.022c0-4.144 3.371-7.515 7.515-7.515h364.796c4.144 0 7.515 3.371 7.515 7.515v36.985h-379.826zm0 52.015h379.826v178.833h-36.534v-33.499c0-4.15-3.364-7.515-7.515-7.515h-127.875c-4.151 0-7.515 3.365-7.515 7.515v33.499h-20.949v-33.499c0-4.15-3.364-7.515-7.515-7.515h-127.874c-4.151 0-7.515 3.365-7.515 7.515v33.499h-36.534zm328.262 178.832h-112.845v-25.984h112.845zm-163.853 0h-112.845v-25.984h112.845z" fill="#000000" data-original="#000000" style="" class=""/><path d="m94.748 102.455c-6.364 0-11.542 5.178-11.542 11.543s5.178 11.542 11.542 11.542 11.542-5.178 11.542-11.542c.001-6.364-5.177-11.543-11.542-11.543z" fill="#000000" data-original="#000000" style="" class=""/><path d="m131.791 102.455c-6.364 0-11.542 5.178-11.542 11.543s5.178 11.542 11.542 11.542 11.542-5.178 11.542-11.542-5.178-11.543-11.542-11.543z" fill="#000000" data-original="#000000" style="" class=""/><path d="m168.833 102.455c-6.364 0-11.542 5.178-11.542 11.543s5.178 11.542 11.542 11.542c6.365 0 11.543-5.178 11.543-11.542s-5.178-11.543-11.543-11.543z" fill="#000000" data-original="#000000" style="" class=""/><path d="m110.136 271.332h54.669c4.151 0 7.515-3.365 7.515-7.515s-3.364-7.515-7.515-7.515h-47.155v-65.938h276.683v65.938h-199.47c-4.151 0-7.515 3.365-7.515 7.515s3.364 7.515 7.515 7.515h206.984c4.151 0 7.515-3.365 7.515-7.515v-80.967c0-4.15-3.364-7.515-7.515-7.515h-291.711c-4.151 0-7.515 3.365-7.515 7.515v80.968c0 4.15 3.364 7.514 7.515 7.514z" fill="#000000" data-original="#000000" style="" class=""/></g></g></g></svg>
